<svg t="1764793172428" class="icon" viewBox="0 0 1024 1024" version="1.1" xmlns="http://www.w3.org/2000/svg" p-id="1259" width="512" height="512">
  <!-- 定义线性渐变 -->
  <defs>
    <linearGradient id="iconGradient" x1="0%" x2="100%" >
      <stop offset="0%" stop-color="#1E85EE" /> <!-- 起始色：蓝色 -->
      <stop offset="50%" stop-color="#8B5CF6" /> <!-- 中间色：紫色 -->
      <stop offset="100%" stop-color="#EC4899" /> <!-- 结束色：粉色 -->
    </linearGradient>
  </defs>
  
  <path d="M774.3 651.187v-1.04q-4.2 16.78-6.3 43.01-3.15 35.67-5.25 44.07l2.1-70.3q-1.05-2.1-2.1 0v-8.39q0-5.25 4.2-8.39l-2.1-1.05v-7.35q0-2.1 2.1-7.34 2.1-5.25 2.1-8.4h-2.1q-12.59 46.17-12.59 112.27 0-1.05-1.05-1.05l-1.05 1.05q0 1.05-1.05 23.08v-19.94l-3.14-1.05q0-15.73 4.19-46.16 2.1-29.38 2.1-45.11-9.44 33.57-9.44 109.11 0-13.64-7.35-16.79v-17.83q-1.05-12.59-1.05-18.89v-114.36q0-30.42 8.4-101.77 1.05-37.77 3.15-76.59 4.19-47.21 14.68-73.44 0-6.3 5.25-23.08 3.15-6.3 15.74-11.54 12.59-4.2 19.93-2.1 6.3-1.05 4.2-1.05h2.1l3.14 1.05v-1.05l1.05-1.05 1.05-1.05q3.15 3.15 8.4 3.15v-3.15l3.14 2.1 8.4-2.1q10.49 0 17.83 10.49 2.1-2.1 8.4-4.19 8.39-2.1 11.54-2.1 14.69 0 34.62 10.49 43.02 24.13 66.1 48.26 20.98 25.18 40.92 68.2 9.44 23.08 9.44 36.72 0 15.74-13.64 38.82-5.25 1.05-22.03 12.59l-20.99 15.74q-13.64 8.39-25.18 9.44-16.78 2.1-22.03 4.2-16.79 4.19-49.31 20.98l7.34-6.3-7.34-1.04q7.34-4.2 11.54-9.45l-4.2 2.1-3.14 4.2q-4.2 2.1-6.3 1.05-2.1 1.05-5.24 3.14-8.4 5.25-25.18 12.59 1.04-5.24 1.04-7.34 11.55-12.59 38.82-32.52 25.18-16.79 35.68-29.38 15.73-19.94 15.73-46.17 0-34.62-90.23-73.44-6.29 22.03-10.49 66.1-6.29 47.21-14.69 99.67-2.09 27.28-10.49 79.74l2.1 1.05q-9.44 18.88-13.64 67.15l-1.05 8.39q-4.19 48.26-8.39 62.95v-29.38q-1.05-17.83-1.05-26.23v-5.24q0-31.48 7.34-79.74v-4.2l-2.09 1.05q-1.05 1.05-1.05 3.15l-2.1 2.1 2.1 1.05-2.1 1.05v2.1l2.1 4.19-2.1 4.2-1.05-4.2q-3.15 12.59-3.15 15.74 0 3.15 2.1 5.25-4.2 14.68-6.3 49.31-2.09 39.87-4.19 53.51v-15.74q0-15.74 2.1-44.07 2.09-29.37 2.09-45.11l-1.04-8.4zM0 454.997l109.11 185.7q6.3 4.2 10.5 0l109.11-188.85-4.2-3.15q-13.63-1.05-28.32-3.15-14.69-2.09-27.28 3.15-11.54 7.35-26.75 37.78-15.21 30.42-19.93 36.72-4.72 6.3-11.02 6.3l-51.41-80.79-59.8 6.3z m237.11 74.49q-6.29 6.29-8.39 6.29-2.1 0-6.29-4.19-4.2-4.2-10.49 2.1-6.3 6.3-7.35 8.92-1.05 2.63-16.79 33.05l38.82 65.05q6.3 4.2 10.49 0l108.07-185.7-3.15-6.3h-55.6l-49.32 80.79z m144.79-34.62q49.31 40.91 28.86 74.49-20.45 33.57-75.01 7.34l-30.43 49.31q38.82 31.48 88.66 20.47 49.83-11.01 71.87-59.29 12.59-37.77-0.52-82.36-13.12-44.59-55.08-56.13l-28.33 46.17z m118.56 6.29l6.29 7.35h41.97l4.2 4.19-74.49 128 4.19 4.2h55.61l84.98-138.49h51.41l32.53-54.56-4.2-3.15H531.93l-31.47 52.46z m399.74 195.15q0-6.3 2.1-16.79v-2.1q0-6.29 1.04-12.59-3.14 5.25-3.14 24.14v7.34z m3.14-12.59q0-1.05 3.15-9.44-3.15 16.78-3.15 28.32v-18.88z m-7.34 38.82l1.05-36.72q-1.05 2.1-1.05 36.72z m10.49 11.54l1.05-1.05v1.05q-1.05 8.39-2.1 14.69 0-4.2 1.05-14.69z m2.1-19.93v3.14q0 5.25-1.05 15.74v-15.74l1.05-2.1v-1.04z m-1.05-45.12q-1.05 13.64-3.15 39.87v2.1q0-19.94 3.15-38.82v-3.15z m54.56-10.49h-3.15q12.59 3.15 28.33 4.2-8.39-1.05-26.23 0v1.04q2.1 2.1 29.38 3.15l1.05 1.05q-1.05 0-7.35-1.05v2.1q-3.15 0-9.44 2.1-52.46-2.1-79.74-7.35-8.39 0-24.13-4.19-5.25-1.05-10.49-6.3l1.05-2.1-2.1-1.04q1.05 0 0-1.05h-1.05l1.05-1.05-1.05-1.05v-2.1l-2.1-1.05 3.15-1.05-1.05-1.05v-2.1l1.05-1.05 1.05-1.04-4.2-2.1 2.1-5.25h-1.05l-1.05-1.05v-2.1q7.35-7.34 16.79-5.24 6.29 1.05 68.19 13.64 12.59 3.14 24.14 6.29 13.64 3.15 24.13 3.15h-4.2v1.05l-30.43-2.1 5.25 1.05-5.25-1.05 2.1 2.1q2.1 1.05 6.3 1.05l-10.49-1.05q12.59 3.15 35.67 6.29-15.74-2.09-39.87-2.09 12.59 1.04 20.98 3.14h-7.34 2.1-8.4v1.05h-1.05H960q-4.2 1.05-5.25 0v1.05h-1.05l1.05 2.1q1.05 1.05 6.3 1.05h1.05z m-48.26 72.39q0-7.34 1.05-9.44 0 3.15-1.05 7.34v2.1z m0 6.3l-1.05 1.05v5.24q-1.05 3.15-1.05 6.3l-1.05 1.05 1.05-7.35-1.05 4.2v-3.15q1.05-2.1 1.05-3.15l-1.05-1.05-1.05 6.3 2.1-17.84v-10.49q0-3.15 1.05-5.24-1.05-1.05-1.05-5.25 0-9.44 2.1-13.64v-4.2q-2.1 4.2-2.1 12.59l-1.05 12.59v-8.39q-1.05 6.3-2.1 17.84l-1.05-6.3q1.05-8.39 2.1-17.83v-7.35q-1.05-3.15-1.05-5.24v1.05l-1.05 1.04v-1.04l-1.05 1.04v-8.39q-5.24 19.94-6.29 45.12v-8.4l-6.3 34.63v-1.05l1.05-15.74q0 4.19-2.1 9.44 0-2.1 1.05-7.34 1.05-5.25 1.05-8.4v-2.1l-2.1 13.64V679.517q1.05-16.78 5.25-40.92 4.2-27.27 9.44-38.82 0-5.24 4.2-14.68 5.24-5.25 13.64-6.3h4.19l2.1 1.05q1.05-1.05 3.15-2.1v1.05h1.05l1.05-1.05h1.05q6.29 0 6.29 12.59 0 6.3-6.29 19.94-1.05 1.05-4.2 17.83l-4.2 17.84q0 2.1-6.29 32.52-1.05 3.15-2.1 11.54 0 4.2-2.1 11.55-1.05 7.34-3.15 23.08-1.04-4.2 0-6.3l-1.04-2.1-1.05 1.05q0 4.2-1.05 11.54v9.45l1.05-1.05z" p-id="1260" fill="url(#iconGradient)"></path>
</svg>