<svg t="1764793172428" class="icon" viewBox="0 0 1024 1024" version="1.1" xmlns="http://www.w3.org/2000/svg" p-id="1259" width="512" height="512">
  <!-- 定义线性渐变 -->
  <defs>
    <linearGradient id="iconGradient" x1="0%" y1="0%" x2="100%" y2="100%">
      <stop offset="0%" stop-color="#1E85EE" /> <!-- 起始色：蓝色 -->
      <stop offset="50%" stop-color="#8B5CF6" /> <!-- 中间色：紫色 -->
      <stop offset="100%" stop-color="#EC4899" /> <!-- 结束色：粉色 -->
    </linearGradient>
  </defs>
  
<path d="M183.912 757.48l1.566-25.06-1.566-1.565v3.131l-3.14 1.566q0 6.263-3.131 18.797l6.272 3.131zM121.27 779.4l3.131-14.09-1.566-3.132q-1.565-1.566-6.262-4.697v4.697l4.697 17.222z m-6.263-17.222l4.697 25.06v-7.838q0-3.131-1.566-9.394-1.565-4.697-1.565-7.828h-1.566z m7.828 43.847q1.566 0 1.566-1.566v-3.13l-1.566-4.698q-3.13 0-3.13 3.131l3.13 6.263z m43.847 14.1l3.131-4.706-1.565-10.96-3.131 7.828h1.565v7.838z m-37.584-1.575v-6.263h-3.131v3.132H124.4l1.566 1.565 3.13 1.566z m18.797 23.494l-7.838-26.625 6.263 4.706-1.566 1.566 3.14 20.353z m12.525 32.887l3.131-15.656v-1.566l3.131-10.968 1.566 3.13-7.828 25.06z m206.718-159.74v-10.96 3.131q-4.696 10.96-4.696 32.888v-3.131 9.393l1.565-1.565 3.132-1.566-3.132-3.131v-7.828h-1.565q1.565-6.263 1.565-4.697h1.566l1.566-9.403v-3.131zM130.662 842.043q1.566-7.828 1.566-23.494l-1.566-6.263-1.565 7.838v20.353l1.565 1.566z m-15.656-25.06l1.566-7.828q-1.566-7.828-17.231-82.997Q68.019 572.68 58.625 480.28q-4.697-18.787-12.534-54.806Q32 331.508 32 262.602q0-15.666 4.697-23.494l9.394-15.656 1.565 6.263 6.272-14.1h3.131v-4.697l1.566 6.262 1.566-1.565v-4.697l6.262 6.262v-3.131l3.131-3.131 1.566 1.565 6.262-1.565v-7.828l4.707 7.828 6.262-9.394v-4.697l3.131 9.394 4.697-1.566h3.132q12.525 43.847 28.19 131.55 1.566 31.322 15.656 129.985 6.272 51.675 20.363 155.043 7.828-36.028 23.494-112.762 9.394-73.603 17.222-117.45 14.1-79.875 28.19-104.935l12.525-3.13v3.13q0-1.565 1.566-1.565l1.575 1.565v3.141l1.566-3.14 1.565 6.271 1.566-3.13q1.565-1.576 3.131-1.576l4.697 3.14v3.132l3.131-3.131-1.565 1.565v1.566l-1.566 3.131 1.566 1.566h1.565l3.131 3.131v3.131q4.697 1.566 3.132 4.697l6.262-6.262 3.131 28.19 3.141-4.697q3.131 4.697 9.394 75.17 1.565 57.946 18.787 108.055 1.566 26.625 7.838 68.907 0 15.665 14.09 61.078 3.132-46.978 17.232-92.4 3.13-25.05 10.959-75.169 21.928-123.722 25.06-134.681 17.221-87.703 39.15-126.853 3.13-1.566 4.696-4.697 3.132 1.565 7.828 3.131 6.263 1.566 7.829 1.566l3.14 6.262q1.566-1.565 4.697-3.131-1.566 3.131-1.566 9.403l1.566 1.566q3.131-4.707 3.131-7.838l4.697 12.535v-6.263q4.697 7.828 7.828 15.656l4.697-7.828 3.131 7.828v-3.13 3.13l3.141 3.132 1.566-1.566q4.697 4.697 4.697 28.19 0 28.191-6.263 54.816-20.362 67.34-54.816 203.588-6.262 40.715-26.625 114.318v3.132q-6.262 14.1-6.262 20.362-4.697 14.09-4.697 34.453 0 3.132-3.131 4.697-1.566 3.131-1.566 10.96 0 1.565-6.272 12.534 0 3.131-1.565 3.131-9.394 37.585-7.828 43.847l7.828 40.716h-3.132q0-3.132-3.13-4.697l-1.567 1.565v12.535q-1.565-9.403-4.696-12.535v-1.565h-3.132q-1.565 0-1.565 1.565l1.565 3.132q-3.13-3.132-4.697-7.828v1.565l6.263 26.625-6.263-9.394q0 1.566-1.565 1.566l-3.131-1.566q-1.566-7.837-6.272-15.665-1.566 0-1.566 6.262 0 3.141 1.566 9.403t1.565 9.394l-9.393-17.231-1.566 3.14q4.697 7.829 7.828 25.05-3.131-3.13-4.697-7.828l-1.565-3.13h-3.132l1.566 7.827-1.566 4.697q-17.222-12.525-21.928-37.584l-3.131 7.828v-12.525l-3.131-4.697-3.132 1.566v1.565q-3.13 6.263-4.696 12.525v3.141-12.534q0-4.697 3.13-6.263-20.362-62.644-61.077-187.931-6.263 3.131-10.96 26.625l-1.565 10.96v6.271q-3.132 26.616-26.625 82.997 1.565 6.262 0 9.394-1.566 1.565-4.697 12.534-3.131 9.394-3.131 10.96l-4.697 9.393h-1.566q-1.566 4.706-1.566 23.494v12.525l-3.14 1.575v4.697q0 4.697 1.575 15.656 1.565 12.534 1.565 15.666l-3.14-26.625-3.131-1.566q-3.132 0-1.566 3.131 0 1.566-1.566 0v7.828l-3.13-3.13v17.23-3.14l-3.132 7.837v-6.272q1.565-1.565 1.565-4.696 0-1.566-3.13-4.697l-1.566 1.565 3.13-3.13v-1.567h-1.565q-1.565 0-1.565 1.566v-3.131l-1.566-1.566q1.566-6.262 1.566-7.828l1.565-3.131v-4.697l-1.565-4.706v-3.132h-1.566 1.566l-1.566-7.828-3.131 1.566v3.131l3.131 17.231-7.828-21.928-1.566-1.565v6.262h-3.131v6.263q-1.566-6.263-1.566-12.525 0-1.566-1.565 0v-9.394l-3.14-1.566-1.567 4.697v10.96q-1.565-3.132-4.696-7.829v10.96h-1.566v1.565l-3.131 1.566v1.566q-1.566 1.565-1.566 4.706v4.697q0 15.656 3.131 25.05-1.565-3.131-1.565-9.394l-1.566-4.697v18.797l-3.131 9.394 3.131-12.535v-1.565q-1.566-3.131-1.566-6.263v-1.565l-1.565-1.566v-1.566q0-4.696-1.566-10.959l-3.131 3.131v4.697l3.131 7.828-3.131-4.697-1.566 6.263v-10.96q-1.565-10.959-6.262-18.796v1.565-1.565q-1.566 0-1.566 1.565zM622.41 687.008v-1.575q-6.262 23.494-7.828 62.644-4.706 51.684-7.837 64.21l3.131-103.36q-1.566-3.131-3.131 0v-10.96q0-7.827 6.272-12.534l-3.141-1.565v-10.96q0-3.13 3.14-10.959 1.566-7.828 1.566-12.534h-1.565q-18.797 67.34-18.797 164.437 0-1.566-1.566-1.566l-1.565 1.566q0 1.566-1.566 32.888v-28.191l-4.697-1.566q0-23.484 6.263-67.34 3.13-43.847 3.13-65.775-14.09 48.553-14.09 158.175 0-20.353-10.969-23.494v-26.616q-1.565-18.797-1.565-28.19V597.74q0-43.857 12.534-147.216 1.566-54.806 4.697-112.753 6.263-67.34 21.919-106.49 0-9.404 7.837-32.888 3.132-9.403 21.919-17.232 18.797-6.262 29.756-3.13 9.394-1.566 6.263-1.566h3.131l4.706 1.565v-1.565l1.566-1.566 1.565-1.566q4.697 4.697 12.525 4.697v-4.697l4.697 3.132 12.535-3.132q15.656 0 26.615 15.657 3.132-3.132 12.535-6.263 12.525-3.131 15.656-3.131 21.928 0 51.684 15.665 64.21 34.454 97.097 70.472 31.322 36.02 61.078 98.663Q992 397.283 992 417.636q0 23.494-20.363 56.382-7.828 1.565-32.887 18.797l-29.756 23.484q-20.353 10.969-37.585 12.534-25.05 3.132-32.887 6.263-25.05 6.262-73.603 31.322l10.96-9.394-10.96-1.566q10.96-6.272 17.231-14.1l-6.272 3.132-4.697 6.262q-6.262 3.131-7.828 1.566-3.131 1.565-7.828 4.706-12.534 7.828-37.584 18.787 1.565-7.828 1.565-10.959 17.222-18.797 56.372-48.553 37.594-23.484 53.25-42.281 23.494-28.19 23.494-67.34 0-50.11-133.116-106.492-9.403 32.888-15.665 95.532-9.394 68.906-21.92 145.64-3.13 39.15-15.665 115.894l3.131 1.566q-14.09 28.19-20.353 98.662l-1.565 10.96q-6.272 70.471-12.535 92.4v-42.291q-1.565-26.616-1.565-39.15v-7.828q0-45.413 10.96-115.885v-6.271l-3.132 1.565q-1.566 1.566-1.566 4.706l-3.131 3.132 3.131 1.565-3.131 1.566v3.131l3.131 6.263-3.131 6.262-1.566-6.262q-4.696 18.797-4.696 23.493 0 3.132 3.13 6.263-6.262 21.928-9.393 72.037-3.131 57.947-6.262 78.3v-23.484q0-21.928 3.13-64.21 3.132-42.28 3.132-65.774l-1.566-10.96z m223.95 62.635q0-9.394 3.132-25.05v-3.132q0-9.403 1.565-18.796-4.697 7.828-4.697 36.018v10.96z m4.697-18.788q0-1.565 4.697-14.1-4.697 25.06-4.697 42.29v-28.19z m-10.969 57.947l1.566-54.816q-1.566 3.132-1.566 54.816z m15.666 17.222l1.566-1.566v1.566q-1.566 12.525-3.132 21.928 0-6.262 1.566-21.928z m3.131-29.756v4.697q0 7.837-1.565 23.493V780.965l1.565-3.132v-1.565z m-1.565-67.34q-1.566 20.362-4.697 59.512v3.13q0-29.755 4.697-57.946v-4.697z m82.997-15.657h-4.697q18.797 4.697 42.29 6.262-12.534-1.565-39.159 0v1.566q3.131 3.131 43.856 4.697l1.566 1.565q-1.566 0-10.969-1.565v3.131q-4.697 0-14.09 3.131-79.866-3.13-120.591-10.959-12.525 0-36.019-6.263-7.828-1.565-17.222-9.403l1.566-3.13-3.131-1.567q1.565 0 0-1.565h-1.566l1.566-1.566-1.566-1.565v-3.132l-3.131-1.565 4.697-1.566-1.566-1.566v-3.13l1.566-1.566 1.565-1.566-6.262-3.131 3.131-7.838h-1.566l-1.565-1.565v-3.132q12.525-10.959 26.615-7.828 9.404 1.566 103.36 20.363 18.797 4.697 36.028 9.393 20.353 4.697 36.019 4.697h-6.272v1.566l-45.413-3.131 7.828 1.565-7.828-1.565 3.131 3.131q3.132 1.566 9.394 1.566l-15.656-1.566q18.797 4.697 53.25 9.394-23.494-3.132-59.513-3.132 18.788 1.566 31.322 4.697h-10.968 3.14-12.534v1.575h-1.566 7.828q-6.262 1.566-7.828 0v1.566h-1.565l1.565 3.131q1.566 1.566 9.394 1.566h1.566z m-73.603 108.056q0-10.96 1.565-14.09 0 4.696-1.565 10.959v3.131z m0 9.394l-1.566 1.565v7.838q-1.566 4.697-1.566 9.394l-1.565 1.565 1.565-10.959-1.565 6.262v-4.696q1.565-3.141 1.565-4.707l-1.565-1.565-1.566 9.403 3.131-26.625V782.53q0-4.697 1.566-7.828-1.566-1.566-1.566-7.828 0-14.09 3.132-20.363v-6.262q-3.132 6.262-3.132 18.797l-1.565 18.787v-12.525q-1.566 9.394-3.132 26.625l-1.565-9.403q1.565-12.525 3.131-26.615v-10.97q-1.566-4.696-1.566-7.827v1.565l-1.565 1.566v-1.566l-1.566 1.566v-12.525q-7.828 29.756-9.394 67.34V782.53l-9.403 51.685v-1.566l1.566-23.494q0 6.263-3.131 14.1 0-3.131 1.565-10.969 1.566-7.828 1.566-12.525v-3.13l-3.131 20.352v-92.39q1.565-25.06 7.837-61.078 6.263-40.716 14.09-57.947 0-7.828 6.263-21.928 7.828-7.829 20.363-9.394h6.262l4.697 1.565q1.566-1.565 4.697-3.13v1.565h1.566l1.565-1.566h1.566q9.403 0 9.403 18.797 0 9.394-9.403 29.756-1.566 1.566-6.263 26.616l-7.828 26.625q0 3.131-9.393 48.553-1.566 4.697-3.132 17.222 0 6.262-3.14 17.231-1.566 10.96-4.697 34.453-1.566-6.272 0-9.403l-1.566-3.131-1.565 1.566q0 6.271-1.566 17.23v14.091l1.566-1.565z" p-id="1650" fill="url(#iconGradient)"></path>
</svg>